<?xml version="1.0" ?><svg viewBox="0 0 512 512" xmlns="http://www.w3.org/2000/svg"><title/><g id="Hamburger"><path d="M479.94,212.56a62.1819,62.1819,0,0,1-19.15-5.04c-2.06-1.36-8.88-6.69-3.02-14.86,8.0451-13.8852,3.4059-36.208-22.8958-41.5538A145.2634,145.2634,0,0,0,411.6221,105.28c-14.2168-18.6426-32.94-33.3472-55.65-43.7046C329.0571,49.3,296.3047,43.0762,258.6255,43.0762S188.1938,49.3,161.2793,61.5757c-22.71,10.3574-41.4336,25.062-55.65,43.7046a145.1,145.1,0,0,0-22.9725,44.9018c-31.979,2.7685-38.0192,27.53-29.3464,42.4779,6.83,9.51-3.58,15.21-3.59,15.21a62.6154,62.6154,0,0,1-18.38,4.69C2.2167,215.4457-1.1623,267.8208,50.9,278.288V306.61c0,10.56,7.87,20.54,21.85,29.37.03,16.79.77,49.35,23.41,78.55,28.57,36.83,82.22,55.5,159.48,55.5s130.91-18.67,159.47-55.5c22.07-28.45,23.34-60.08,23.41-77.22,15.33-9.15,24.02-19.6,24.02-30.7V277.8179C512.3307,266.3514,508.653,215.405,479.94,212.56ZM258.6255,56.0762c165.1206,0,169.8877,122.0971,169.8877,136.02,0,11.5679-17.62,24.0757-47.1319,33.4585-32.6958,10.3945-76.291,16.1191-122.7558,16.1191s-90.06-5.7246-122.7554-16.1191c-29.5127-9.3828-47.1323-21.8906-47.1323-33.4585C88.7378,178.1733,93.5049,56.0762,258.6255,56.0762ZM366.3994,301.3046A172.5488,172.5488,0,0,0,354.66,322.45c-1.11,2.26-2.15,4.46-3.14,6.54-1.02,2.14-1.96,4.12-2.81,5.86l-13.29,27.01a10.5671,10.5671,0,0,1-8.74,5.99,10.7215,10.7215,0,0,1-9.66-4.39l-10-13.7c-2.61-3.59-5.72-8.64-9-13.99q-1.755-2.865-3.57-5.78c-7.0549-11.3492-14.7618-22.89-23.4375-30.0961A62.8837,62.8837,0,0,0,296.68,289.17a19.6312,19.6312,0,0,1,23.15.3c7.37,5.41,19.48,10.68,39.06,11.74C361.5293,301.35,364.0253,301.3738,366.3994,301.3046ZM64.8605,279.9629A135.5681,135.5681,0,0,0,89.58,278.74a19.8253,19.8253,0,0,1,18.12,7.03c6.13,7.57,18.94,16.81,44.69,15.44,19.69-1.06,31.81-6.39,39.17-11.82a19.8674,19.8674,0,0,1,23.31-.53,63.7855,63.7855,0,0,0,10.0479,5.7942l-.0379.1058,1.37.4921a67.9923,67.9923,0,0,0,8.4431,3.0318L256.6,306.15c7.49,2.69,15.73,13.55,22.93,24.6q-11.22.45-22.81.45c-57.85,0-109.87-8.38-145.89-21.71q-8.28-3.075-15.39-6.47C81.1407,296.1682,70.6159,288.3709,64.8605,279.9629Zm178.415,91.9487-7.5856,4.4341c-13.2133,5.53-22.935,16.3486-31.4707,27.2275l-12.8217,16.3077a10.891,10.891,0,0,1-18.03-1.36L157.4,390.3579c-.9717-1.7139-2.0869-3.8-3.2681-6.0088-4.2549-7.9586-9.31-17.3979-15.0963-24.053C168.9476,366.9357,204.6566,371.12,243.2755,371.9116ZM404.84,406.56c-25.97,33.49-76.17,50.47-149.2,50.47s-123.23-16.98-149.2-50.47c-17.19-22.16-20.1-47.15-20.59-63.45,4.8438,2.287,10.1413,4.4685,15.8317,6.5383L125.9868,365.68c5.7056,4.271,12.3047,16.6133,16.6807,24.7988,1.22,2.2813,2.3721,4.4361,3.4233,6.291l15.9707,28.1685A23.8712,23.8712,0,0,0,181.07,436.9712q.8979.0666,1.7891.0664a23.8253,23.8253,0,0,0,18.76-9.125l12.8233-16.31c7.5288-9.5957,15.9609-19.0718,26.5923-23.4a6.4657,6.4657,0,0,0,.8295-.4087l27.1318-15.8606c12.6144-.2364,24.9277-.8335,36.8335-1.7638l.69.95a23.59,23.59,0,0,0,19.17,9.77c.7,0,1.41-.03,2.12-.09a23.598,23.598,0,0,0,19.28-13.21l1.16-2.35c30.94-4.89,57.46-12.19,77.14-21.12C424.81,360.43,421.68,384.85,404.84,406.56ZM416.77,303.6q-7.11,3.33-15.39,6.34a281.601,281.601,0,0,1-30.37,8.99c4-7.47,8.42-14.53,12.62-17.98l5.0506-4.1476A38.3886,38.3886,0,0,0,403.57,285.77a19.8524,19.8524,0,0,1,18.13-7.03,132.7351,132.7351,0,0,0,26.9647,1.1008C442.767,288.5363,431.7685,296.5825,416.77,303.6Z"/><path d="M193.0566,129.2983c4.1119,2.3746,8.6343,4.09,11.9659,4.09,1.958,0,3.5048-.5933,4.3134-1.9937,2.1841-3.7837-3.4257-9.2807-9.9546-13.05s-14.0952-5.88-16.2792-2.0962c-.7388,1.2793-.9839,3.5162,2.0463,6.9063A32.9706,32.9706,0,0,0,193.0566,129.2983Z"/><path d="M344.938,145.4214a32.955,32.955,0,0,0,9.2749,3.7768,13.2591,13.2591,0,0,0,2.706.3106c2.5332,0,3.732-1.01,4.2979-1.9912.7388-1.2793.9839-3.5161-2.0464-6.9063a36.6911,36.6911,0,0,0-17.1831-9.9209c-4.4526-.9316-6.2656.4009-7.0039,1.6807s-.9839,3.5166,2.0464,6.9062A32.9483,32.9483,0,0,0,344.938,145.4214Z"/><path d="M285.3057,128.4312c3.4985,0,8.29-3.8731,12.1-8.4981,4.7925-5.8188,8.12-12.9341,4.7475-15.7119s-9.7182,1.8511-14.5112,7.67h0c-4.7925,5.8193-8.1191,12.9346-4.7475,15.7124A3.6824,3.6824,0,0,0,285.3057,128.4312Z"/><path d="M250.5327,161.17c-.7446,1.29-.99,3.5459,2.0723,6.9717a37.196,37.196,0,0,0,17.414,10.0542,13.4781,13.4781,0,0,0,2.7393.3144c2.5562,0,3.7642-1.018,4.3345-2.0058.7446-1.29.99-3.5464-2.0723-6.9722a33.4139,33.4139,0,0,0-8.0142-6.2261C260.3955,159.49,252.7383,157.3481,250.5327,161.17Z"/><path d="M172.6665,178.5107a13.5138,13.5138,0,0,0,2.7393-.3144,33.4249,33.4249,0,0,0,9.3994-3.8281c6.61-3.816,12.2925-9.377,10.0869-13.1978s-9.8628-1.6811-16.4736,2.1362-12.2925,9.377-10.087,13.1983C168.9019,177.4932,170.11,178.5107,172.6665,178.5107Z"/><path d="M231.8428,96.106c3.3711,0,7.9551-1.74,12.122-4.146,6.61-3.8169,12.293-9.378,10.087-13.1983-.7437-1.29-2.5757-2.6274-7.0738-1.6914a37.196,37.196,0,0,0-17.414,10.0542c-3.062,3.4258-2.8169,5.6821-2.0723,6.9717C228.3071,95.5083,229.8662,96.106,231.8428,96.106Z"/></g></svg>