<svg width="20" height="20" viewBox="0 0 20 20" fill="none" xmlns="http://www.w3.org/2000/svg">
<path d="M4.85714 17.0714V16.4284C4.85714 14.2981 6.58404 12.5714 8.71429 12.5714H11.2857C13.416 12.5714 15.1429 14.2981 15.1429 16.4284V17.0714M10 4.85714C8.57984 4.85714 7.42857 6.00841 7.42857 7.42857C7.42857 8.84873 8.57984 10 10 10C11.4202 10 12.5714 8.84873 12.5714 7.42857C12.5714 6.00841 11.4202 4.85714 10 4.85714ZM10 19C5.02944 19 1 14.9706 1 10C1 5.02944 5.02944 1 10 1C14.9706 1 19 5.02944 19 10C19 14.9706 14.9706 19 10 19Z" stroke="#5D6568" stroke-width="2" stroke-linecap="square"/>
</svg>
