<svg id="SvgjsSvg1001" width="288" height="288" xmlns="http://www.w3.org/2000/svg" version="1.1" xmlns:xlink="http://www.w3.org/1999/xlink" xmlns:svgjs="http://svgjs.com/svgjs"><defs id="SvgjsDefs1002"></defs><g id="SvgjsG1008"><svg xmlns="http://www.w3.org/2000/svg" width="288" height="288" fill="none" viewBox="0 0 14 14"><mask id="a" width="12" height="14" x="1" y="0" fill="#000" maskUnits="userSpaceOnUse"><rect width="12" height="14" x="1" fill="#ffffff" class="colorfff svgShape"></rect><path fill-rule="evenodd" d="M5.07743 2.55104C6.36264 1.80428 7.94237 1.81733 9.21552 2.58523C10.4762 3.36877 11.2423 4.76716 11.2352 6.27144C11.2059 7.76585 10.3843 9.17059 9.35734 10.2565C8.76461 10.8861 8.10154 11.4428 7.38167 11.9153C7.30753 11.9582 7.22632 11.9869 7.14205 12C7.06094 11.9965 6.98195 11.9726 6.91221 11.9303C5.81319 11.2203 4.84902 10.3141 4.06608 9.25527C3.41093 8.37139 3.03873 7.30353 3 6.19672C2.99915 4.68956 3.79222 3.2978 5.07743 2.55104ZM5.95021 6.76746C6.14537 7.24859 6.60602 7.56242 7.11708 7.56243C7.45188 7.56483 7.77372 7.43072 8.01088 7.18999C8.24804 6.94925 8.38082 6.62189 8.37964 6.28085C8.38142 5.76027 8.07495 5.28994 7.60331 5.08946C7.13166 4.88899 6.58789 4.9979 6.22589 5.36536C5.86388 5.73282 5.75505 6.28634 5.95021 6.76746Z" clip-rule="evenodd" fill="#000000" class="color000 svgShape"></path></mask><path fill="#ff002b" d="M9.21552 2.58523L10.0601 1.22633L10.051 1.22068L10.0419 1.21515L9.21552 2.58523ZM5.07743 2.55104L4.2736 1.16762L4.2736 1.16762L5.07743 2.55104ZM11.2352 6.27144L12.8349 6.30285L12.8351 6.29094L12.8352 6.27903L11.2352 6.27144ZM9.35734 10.2565L8.19483 9.15716L8.19237 9.15977L9.35734 10.2565ZM7.38167 11.9153L8.18259 13.3004L8.22177 13.2778L8.25961 13.2529L7.38167 11.9153ZM7.14205 12L7.07399 13.5986L7.23189 13.6053L7.38805 13.581L7.14205 12ZM6.91221 11.9303L6.04404 13.2742L6.06295 13.2865L6.0822 13.2981L6.91221 11.9303ZM4.06608 9.25527L5.35258 8.30401L5.35148 8.30252L4.06608 9.25527ZM3 6.19672L1.4 6.19762L1.40002 6.22515L1.40098 6.25267L3 6.19672ZM7.11708 7.56243L7.12857 5.96243H7.11709L7.11708 7.56243ZM5.95021 6.76746L4.46754 7.36888L4.46754 7.36888L5.95021 6.76746ZM8.01088 7.18999L9.15068 8.31287L9.15068 8.31287L8.01088 7.18999ZM8.37964 6.28085L6.77961 6.27535L6.77965 6.28642L8.37964 6.28085ZM7.60331 5.08946L8.22921 3.61697L8.22921 3.61697L7.60331 5.08946ZM6.22589 5.36536L5.08609 4.24248L5.08609 4.24248L6.22589 5.36536ZM10.0419 1.21515C8.26868 0.145643 6.06406 0.12728 4.2736 1.16762L5.88125 3.93447C6.66121 3.48128 7.61606 3.48902 8.38915 3.95531L10.0419 1.21515ZM12.8352 6.27903C12.8449 4.22815 11.8005 2.30807 10.0601 1.22633L8.3709 3.94414C9.15176 4.42948 9.63976 5.30618 9.63521 6.26385L12.8352 6.27903ZM10.5198 11.3559C11.6897 10.1188 12.7947 8.35134 12.8349 6.30285L9.63551 6.24003C9.61704 7.18036 9.07889 8.22234 8.19484 9.15717L10.5198 11.3559ZM8.25961 13.2529C9.0847 12.7114 9.84403 12.0737 10.5223 11.3533L8.19237 9.15977C7.68519 9.6985 7.11838 10.1743 6.50374 10.5777L8.25961 13.2529ZM7.38805 13.581C7.66865 13.5373 7.93791 13.4419 8.18259 13.3004L6.58076 10.5302C6.67715 10.4745 6.784 10.4365 6.89605 10.419L7.38805 13.581ZM6.0822 13.2981C6.38126 13.4796 6.72215 13.5836 7.07399 13.5986L7.21011 10.4014C7.39973 10.4095 7.58264 10.4656 7.74221 10.5624L6.0822 13.2981ZM2.77957 10.2065C3.67639 11.4194 4.78198 12.459 6.04404 13.2742L7.78037 10.5863C6.84441 9.98168 6.02165 9.20886 5.35258 8.30401L2.77957 10.2065ZM1.40098 6.25267C1.45095 7.68098 1.93124 9.06202 2.78068 10.208L5.35148 8.30252C4.89063 7.68076 4.6265 6.92609 4.59902 6.14077L1.40098 6.25267ZM4.2736 1.16762C2.48676 2.20585 1.39883 4.12995 1.4 6.19762L4.6 6.19581C4.59947 5.24916 5.09767 4.38976 5.88125 3.93447L4.2736 1.16762ZM7.11709 5.96243C7.27109 5.96243 7.38835 6.05627 7.43288 6.16605L4.46754 7.36888C4.90239 8.44091 5.94095 9.16242 7.11707 9.16243L7.11709 5.96243ZM6.87108 6.06711C6.93424 6.003 7.02637 5.96173 7.12857 5.96247L7.10559 9.16238C7.8774 9.16793 8.6132 8.85844 9.15068 8.31287L6.87108 6.06711ZM6.77965 6.28642C6.77938 6.2097 6.80894 6.13019 6.87108 6.06711L9.15068 8.31287C9.68714 7.76832 9.98227 7.03408 9.97963 6.27527L6.77965 6.28642ZM6.9774 6.56196C6.84436 6.50541 6.77927 6.38516 6.77965 6.27535L9.97963 6.28634C9.98358 5.13538 9.30553 4.07448 8.22921 3.61697L6.9774 6.56196ZM7.36569 6.48824C7.2707 6.58466 7.11553 6.62068 6.9774 6.56196L8.22921 3.61697C7.14779 3.1573 5.90508 3.41115 5.08609 4.24248L7.36569 6.48824ZM7.43288 6.16605C7.47567 6.27153 7.45563 6.39695 7.36569 6.48824L5.08609 4.24248C4.27214 5.0687 4.03444 6.30114 4.46754 7.36888L7.43288 6.16605Z" mask="url(#a)" class="color006F4C svgShape"></path></svg></g></svg>