<svg width="30" height="29" viewBox="0 0 30 29" fill="none" xmlns="http://www.w3.org/2000/svg">
<path d="M24.0596 5.16295L26.8474 5.07486V14.9404H23.4844L24.0596 5.16295Z" fill="#FFA132"/>
<ellipse cx="15.475" cy="22.1634" rx="3.31877" ry="4.2281" fill="#FFA132"/>
<path d="M9.38663 8.37806C9.38663 10.7132 7.76801 10.3159 5.93511 10.3159C4.1022 10.3159 2.88184 9.69934 2.88184 8.86253C2.88184 6.52742 4.23495 6.21997 6.06786 6.21997C7.90077 6.21997 9.38663 6.04295 9.38663 8.37806Z" fill="#FFA132"/>
<path d="M1.23293 0.791288C1.06958 0.882334 0.853965 1.07743 0.74289 1.227L0.546875 1.50664V4.99234V8.48455L0.716755 8.92027C1.33094 10.4875 2.65077 11.528 4.23849 11.6906L4.66319 11.7361L4.69586 19.605L4.72853 27.4738L4.87227 27.708C4.95721 27.838 5.1467 28.0266 5.29697 28.1307C5.53872 28.2998 5.62366 28.3193 6.06797 28.3193C6.50573 28.3193 6.59721 28.2998 6.82589 28.1437C6.9631 28.0461 7.15258 27.8575 7.24406 27.721L7.4074 27.4803L7.44007 19.6115L7.47274 11.7361L7.89744 11.6906C9.52436 11.528 10.9487 10.364 11.4453 8.80971C11.5891 8.36099 11.5891 8.28946 11.5891 4.93382V1.51314L11.4126 1.25952C11.1252 0.856319 10.8246 0.687237 10.3215 0.661224C9.78572 0.635212 9.40022 0.810799 9.1062 1.227L8.91018 1.50664L8.87751 3.13894L8.84485 4.77774H8.15879H7.47274L7.44007 3.14544C7.4074 1.53915 7.4074 1.51314 7.24406 1.27903C6.96964 0.869326 6.63641 0.687237 6.13984 0.661224C5.60406 0.635212 5.21857 0.810799 4.92454 1.227L4.72853 1.50664L4.69586 3.13894L4.66319 4.77774H3.97714H3.29109L3.25842 3.14544L3.22575 1.51314L3.04933 1.25952C2.76185 0.856319 2.46129 0.687237 1.95818 0.661224C1.59882 0.641716 1.47468 0.667728 1.23293 0.791288ZM8.81218 7.73669C8.81218 8.13338 8.49202 8.56909 8.02812 8.81622C7.81903 8.92677 7.63609 8.93978 6.06797 8.93978C4.42144 8.93978 4.32343 8.93327 4.07515 8.79671C3.63085 8.56259 3.32376 8.12688 3.32376 7.73669V7.54159H6.06797H8.81218V7.73669Z" fill="white"/>
<path d="M14.7772 0.79129C14.6138 0.882334 14.3982 1.07743 14.2872 1.227L14.0911 1.50664L14.0585 8.75769L14.0258 16.0087L13.477 16.1713C12.1049 16.5615 11.079 17.3809 10.5041 18.532C10.001 19.553 9.91602 19.9757 9.91602 21.4584C9.91602 22.5444 9.93562 22.8046 10.0532 23.2793C10.6935 25.796 12.1114 27.5129 14.0911 28.1697C14.4766 28.2932 14.6857 28.3193 15.4306 28.3193C16.1754 28.3193 16.3845 28.2932 16.77 28.1697C18.7498 27.5129 20.1676 25.796 20.8079 23.2793C20.9255 22.8046 20.9451 22.5444 20.9451 21.4584C20.9451 20.3659 20.9255 20.1187 20.8014 19.67C20.3113 17.8686 19.1418 16.6721 17.3842 16.1713L16.8353 16.0087L16.8027 8.76419L16.77 1.51314L16.5936 1.25952C16.3061 0.856319 16.0056 0.687239 15.5024 0.661226C15.1431 0.641716 15.0189 0.667728 14.7772 0.79129ZM16.7177 18.8571C17.4495 19.1042 17.9265 19.67 18.1094 20.4894C18.2336 21.0552 18.1617 22.4729 17.9788 23.0517C17.639 24.1182 16.9922 25.0156 16.293 25.3668C15.8553 25.5879 15.0124 25.5944 14.5812 25.3733C13.8363 24.9896 13.2352 24.1572 12.8693 23.0192C12.7386 22.59 12.719 22.4014 12.719 21.4584C12.719 20.4114 12.7256 20.3789 12.9085 19.9757C13.2352 19.2733 13.9017 18.8181 14.7772 18.7011C14.7772 18.7011 16.3126 18.7271 16.7177 18.8571Z" fill="white"/>
<path d="M27.3748 0.765276C26.5384 1.20099 25.2447 2.38457 24.4476 3.43158C22.4613 6.06537 21.3048 9.78519 21.037 14.435C20.9389 16.1388 20.9847 16.3924 21.4355 16.8411C21.8733 17.2769 21.9909 17.2964 24.4737 17.2964H26.6038V22.3233V27.3568L26.7541 27.6299C26.8325 27.786 27.0285 28.0006 27.1853 28.1177C27.4401 28.2998 27.5054 28.3193 27.9694 28.3193C28.4137 28.3193 28.5051 28.2998 28.7338 28.1437C28.871 28.0461 29.0605 27.8575 29.152 27.721L29.3153 27.4803V14.5V1.51314L29.1389 1.25952C28.8514 0.849817 28.5509 0.687237 28.0478 0.661224C27.7211 0.648218 27.5577 0.667728 27.3748 0.765276ZM26.6038 9.88274V14.5H25.2186H23.84L23.8857 13.8302C24.0033 12.0418 24.4411 9.88274 25.0095 8.28946C25.3885 7.23594 26.4078 5.26548 26.5711 5.26548C26.5907 5.26548 26.6038 7.33999 26.6038 9.88274Z" fill="white"/>
</svg>
