<?xml version="1.0" ?><svg viewBox="0 0 338.35 613.25" xmlns="http://www.w3.org/2000/svg"><defs><style>.cls-1{fill:#173156;}</style></defs><title/><g data-name="Capa 2" id="Capa_2"><g id="Outline"><path class="cls-1" d="M329.85,151.34H317.69V130.08a8.5,8.5,0,0,0-8.5-8.5H206.08V57.52l38.48-37.1a3.5,3.5,0,0,0,.09-5L230.77,1.07A3.52,3.52,0,0,0,228.31,0a3.47,3.47,0,0,0-2.49,1L186.26,39.12a3.63,3.63,0,0,0-.79,1.15l-6.12,14.39a3.61,3.61,0,0,0-.28,1.37v65.55H29.16a8.5,8.5,0,0,0-8.5,8.5v21.26H8.5a8.51,8.51,0,0,0-8.5,8.5v55a8.5,8.5,0,0,0,8.5,8.5H20.27L55.83,605.54a8.5,8.5,0,0,0,8.46,7.71H274.06a8.5,8.5,0,0,0,8.46-7.71L318.08,223.3h11.77a8.5,8.5,0,0,0,8.5-8.5v-55A8.51,8.51,0,0,0,329.85,151.34ZM186.07,56.75l5.56-13.08L228.16,8.45l9,9.36-37,35.7A3.48,3.48,0,0,0,199.08,56v65.55h-13ZM37.66,138.58h263v12.76h-263ZM284.38,402c-58.51,3.19-84.9,40.47-110.45,76.59-25.81,36.48-50.29,71-105.95,74.1L57.05,435.13c59.23-3.38,91.34-40.68,122.43-76.8s60.72-70.49,115.83-73.82ZM266.31,596.25H72l-3.4-36.58c58.89-3.39,85.37-40.81,111-77,25.52-36.07,49.72-70.21,104.08-73.56ZM296,277.44c-58.82,3.18-90.81,40.34-121.79,76.33-31.54,36.63-61.42,71.29-117.78,74.36L37.34,223.3H301Zm25.38-71.14H17v-38H321.35Z" id="Soda"/></g></g></svg>